<?xml version="1.0" encoding="utf-8"?>
<svg width="1024px" height="1024px" viewBox="0 0 1024 1024" version="1.1" xmlns:xlink="http://www.w3.org/1999/xlink" xmlns="http://www.w3.org/2000/svg">
  <defs>
    <linearGradient gradientUnits="objectBoundingBox" x1="0.5" y1="0" x2="0.5" y2="1" id="gradient_1">
      <stop offset="0%" stop-color="#F43E5C" />
      <stop offset="100%" stop-color="#E8193B" />
    </linearGradient>
    <linearGradient gradientUnits="objectBoundingBox" x1="0.5" y1="0" x2="0.8943559" y2="0.91585207" id="gradient_2">
      <stop offset="1.1235955%" stop-color="#F54E69" />
      <stop offset="98.314606%" stop-color="#E2082B" />
    </linearGradient>
    <path d="M1024 0L1024 0L1024 1024L0 1024L0 0L1024 0Z" id="path_1" />
    <path d="M289.925 25.456C303.986 11.3952 326.776 11.3951 340.837 25.4559L605.306 289.925C619.367 303.986 619.367 326.776 605.306 340.837L340.837 605.307C326.776 619.367 303.986 619.367 289.925 605.307L25.4558 340.837C11.3951 326.776 11.3951 303.986 25.4558 289.925L289.925 25.456Z" id="path_2" />
    <clipPath id="clip_1">
      <use xlink:href="#path_1" />
    </clipPath>
    <clipPath id="clip_2">
      <use xlink:href="#path_2" />
    </clipPath>
  </defs>
  <g id="Icon Fore" clip-path="url(#clip_1)">
    <path d="M1024 0L1024 0L1024 1024L0 1024L0 0L1024 0Z" id="Icon-Fore" fill="none" stroke="none" />
    <g id="Group-2" transform="translate(197 196.99988)">
      <g id="Rec">
        <use stroke="none" fill="#141313" fill-opacity="0" xlink:href="#path_2" />
        <g clip-path="url(#clip_2)">
          <use xlink:href="#path_2" fill="none" stroke="url(#gradient_1)" stroke-width="30" />
        </g>
      </g>
      <path d="M286.821 91.4645C302.62 75.665 328.229 75.665 344.028 91.4645L540.282 287.718C556.082 303.518 556.082 329.126 540.282 344.926L344.028 541.179C339.337 545.871 333.78 549.169 327.872 551.075C327.909 535.047 323.405 537.488 332.945 504.925C342.484 472.361 353.251 458.718 366.03 420.822C378.81 382.925 377.911 379.746 384.063 353.339C390.214 326.933 385.614 285.886 356.925 245.529C324.687 200.181 273.414 156.3 243.821 134.464L286.821 91.4645L286.821 91.4645ZM142.033 396.146C142.019 396.214 142.005 396.282 141.991 396.349L90.5675 344.926C74.7679 329.126 74.7679 303.518 90.5674 287.718L235.008 140.469C239.053 159.614 255.943 197.812 243.997 230.976C219.916 297.82 156.631 325.646 142.033 396.146L142.033 396.146Z" id="Vector" fill="url(#gradient_2)" fill-rule="evenodd" stroke="none" />
    </g>
  </g>
</svg>