<?xml version="1.0" encoding="utf-8"?>
<svg width="512px" height="512px" viewBox="0 0 512 512" version="1.1" xmlns:xlink="http://www.w3.org/1999/xlink" xmlns="http://www.w3.org/2000/svg">
  <defs>
    <linearGradient gradientUnits="userSpaceOnUse" x1="298.74362" y1="51.25624" x2="51.25639" y2="298.74374" id="gradient_1">
      <stop offset="0%" stop-color="#E27A46" />
      <stop offset="50%" stop-color="#D41872" />
      <stop offset="100%" stop-color="#EE03F7" />
    </linearGradient>
    <linearGradient gradientUnits="userSpaceOnUse" x1="233.40453" y1="0" x2="233.40453" y2="466.80905" id="gradient_2">
      <stop offset="0%" stop-color="#E27E3F" />
      <stop offset="100%" stop-color="#EE00FB" />
    </linearGradient>
    <linearGradient gradientUnits="userSpaceOnUse" x1="0" y1="0" x2="221.40732" y2="420.73282" id="gradient_3">
      <stop offset="0%" stop-color="#E27946" />
      <stop offset="100%" stop-color="#EB1ECF" />
    </linearGradient>
    <filter filterUnits="userSpaceOnUse" color-interpolation-filters="sRGB" id="filter_1">
      <feFlood flood-opacity="0" result="BackgroundImageFix" />
      <feColorMatrix in="SourceAlpha" type="matrix" values="0 0 0 0 0 0 0 0 0 0 0 0 0 0 0 0 0 0 127 0" />
      <feOffset dx="7" dy="21" />
      <feGaussianBlur stdDeviation="2" />
      <feColorMatrix type="matrix" values="0 0 0 0 0 0 0 0 0 0 0 0 0 0 0 0 0 0 0.49803922 0" />
      <feBlend mode="normal" in2="BackgroundImageFix" result="effect0_dropShadow" />
      <feBlend mode="normal" in="SourceGraphic" in2="effect0_dropShadow" result="shape" />
    </filter>
    <filter filterUnits="userSpaceOnUse" color-interpolation-filters="sRGB" id="filter_2">
      <feFlood flood-opacity="0" result="BackgroundImageFix" />
      <feColorMatrix in="SourceAlpha" type="matrix" values="0 0 0 0 0 0 0 0 0 0 0 0 0 0 0 0 0 0 127 0" />
      <feOffset dx="0" dy="2" />
      <feGaussianBlur stdDeviation="2" />
      <feColorMatrix type="matrix" values="0 0 0 0 0.23137255 0 0 0 0 0.22352941 0 0 0 0 0.22352941 0 0 0 0.49803922 0" />
      <feBlend mode="normal" in2="BackgroundImageFix" result="effect0_dropShadow" />
      <feBlend mode="normal" in="SourceGraphic" in2="effect0_dropShadow" result="shape" />
    </filter>
    <rect width="512" height="512" id="artboard_1" />
    <clipPath id="clip_1">
      <use xlink:href="#artboard_1" clip-rule="evenodd" />
    </clipPath>
  </defs>
  <g id="Artboard-19" clip-path="url(#clip_1)">
    <path d="M279.636 32.6363L479.042 232.042Q479.632 232.632 480.193 233.25Q480.753 233.869 481.283 234.514Q481.812 235.159 482.309 235.829Q482.807 236.5 483.27 237.194Q483.734 237.888 484.163 238.604Q484.592 239.32 484.986 240.056Q485.379 240.792 485.736 241.546Q486.093 242.301 486.412 243.072Q486.731 243.843 487.013 244.629Q487.294 245.415 487.536 246.213Q487.778 247.012 487.981 247.822Q488.184 248.631 488.347 249.45Q488.51 250.268 488.632 251.094Q488.755 251.92 488.836 252.75Q488.918 253.581 488.959 254.414Q489 255.248 489 256.083Q489 256.917 488.959 257.751Q488.918 258.585 488.836 259.415Q488.755 260.246 488.632 261.071Q488.51 261.897 488.347 262.715Q488.184 263.534 487.981 264.344Q487.778 265.153 487.536 265.952Q487.294 266.751 487.013 267.537Q486.731 268.322 486.412 269.093Q486.093 269.865 485.736 270.619Q485.379 271.374 484.986 272.11Q484.592 272.846 484.163 273.562Q483.734 274.277 483.27 274.971Q482.807 275.665 482.309 276.336Q481.812 277.006 481.283 277.651Q480.753 278.297 480.193 278.915Q479.632 279.533 479.042 280.124L279.637 479.529Q279.046 480.119 278.428 480.68Q277.81 481.24 277.164 481.77Q276.519 482.299 275.849 482.797Q275.178 483.294 274.485 483.757Q273.791 484.221 273.075 484.65Q272.359 485.079 271.623 485.473Q270.887 485.866 270.132 486.223Q269.378 486.58 268.607 486.899Q267.835 487.219 267.05 487.5Q266.264 487.781 265.465 488.023Q264.666 488.266 263.857 488.468Q263.047 488.671 262.229 488.834Q261.41 488.997 260.584 489.119Q259.759 489.242 258.928 489.324Q258.098 489.405 257.264 489.446Q256.43 489.487 255.596 489.487Q254.761 489.487 253.927 489.446Q253.094 489.405 252.263 489.323Q251.433 489.242 250.607 489.119Q249.781 488.997 248.963 488.834Q248.144 488.671 247.335 488.468Q246.525 488.266 245.726 488.023Q244.928 487.781 244.142 487.5Q243.356 487.219 242.585 486.899Q241.814 486.58 241.059 486.223Q240.305 485.866 239.569 485.473Q238.833 485.079 238.117 484.65Q237.401 484.221 236.707 483.757Q236.013 483.294 235.343 482.797Q234.672 482.299 234.027 481.77Q233.382 481.24 232.763 480.68Q232.145 480.119 231.555 479.529L32.1492 280.124Q31.559 279.534 30.9985 278.915Q30.438 278.297 29.9085 277.652Q29.379 277.007 28.8818 276.336Q28.3846 275.666 27.921 274.972Q27.4573 274.278 27.0282 273.562Q26.5991 272.846 26.2056 272.11Q25.8122 271.374 25.4554 270.619Q25.0985 269.865 24.7791 269.094Q24.4597 268.323 24.1785 267.537Q23.8973 266.751 23.6551 265.952Q23.4128 265.154 23.21 264.344Q23.0072 263.534 22.8444 262.716Q22.6815 261.897 22.5591 261.072Q22.4366 260.246 22.3548 259.415Q22.273 258.585 22.232 257.751Q22.1911 256.918 22.1911 256.083Q22.1911 255.248 22.232 254.415Q22.273 253.581 22.3548 252.75Q22.4366 251.92 22.5591 251.094Q22.6815 250.269 22.8444 249.45Q23.0072 248.631 23.21 247.822Q23.4128 247.012 23.6551 246.214Q23.8973 245.415 24.1785 244.629Q24.4597 243.843 24.7791 243.072Q25.0985 242.301 25.4553 241.546Q25.8122 240.792 26.2056 240.056Q26.5991 239.32 27.0281 238.604Q27.4572 237.888 27.9209 237.194Q28.3846 236.5 28.8818 235.83Q29.379 235.159 29.9085 234.514Q30.438 233.869 30.9985 233.251Q31.559 232.632 32.1491 232.042L231.555 32.6363Q232.145 32.0462 232.763 31.4857Q233.382 30.9252 234.027 30.3957Q234.672 29.8662 235.342 29.369Q236.013 28.8718 236.707 28.4081Q237.401 27.9444 238.116 27.5153Q238.832 27.0863 239.568 26.6928Q240.305 26.2994 241.059 25.9425Q241.813 25.5857 242.585 25.2663Q243.356 24.9469 244.142 24.6657Q244.927 24.3845 245.726 24.1422Q246.525 23.9 247.334 23.6972Q248.144 23.4944 248.963 23.3315Q249.781 23.1687 250.607 23.0462Q251.432 22.9238 252.263 22.842Q253.094 22.7602 253.927 22.7192Q254.761 22.6782 255.595 22.6782Q256.43 22.6782 257.264 22.7192Q258.097 22.7602 258.928 22.842Q259.758 22.9238 260.584 23.0462Q261.41 23.1687 262.228 23.3315Q263.047 23.4943 263.857 23.6971Q264.666 23.8999 265.465 24.1422Q266.263 24.3845 267.049 24.6657Q267.835 24.9469 268.606 25.2663Q269.377 25.5857 270.132 25.9425Q270.886 26.2994 271.622 26.6928Q272.359 27.0862 273.074 27.5153Q273.79 27.9444 274.484 28.4081Q275.178 28.8718 275.849 29.369Q276.519 29.8662 277.164 30.3956Q277.809 30.9251 278.428 31.4856Q279.046 32.0461 279.636 32.6363Z" id="Rectangle-3" fill="url(#gradient_1)" fill-rule="evenodd" stroke="none" artboard="5522d465-6828-4530-9650-602f97bbcb56" />
    <path d="M173.849 90.6633L32.5536 231.959Q31.9634 232.549 31.4029 233.168Q30.8424 233.786 30.3129 234.431Q29.7834 235.077 29.2862 235.747Q28.789 236.417 28.3253 237.111Q27.8617 237.805 27.4326 238.521Q27.0035 239.237 26.61 239.973Q26.2166 240.709 25.8598 241.464Q25.5029 242.218 25.1835 242.989Q24.8641 243.76 24.5829 244.546Q24.3018 245.332 24.0595 246.131Q23.8172 246.929 23.6144 247.739Q23.4116 248.549 23.2488 249.367Q23.0859 250.186 22.9635 251.011Q22.841 251.837 22.7592 252.668Q22.6774 253.498 22.6364 254.332Q22.5955 255.165 22.5955 256Q22.5955 256.835 22.6364 257.668Q22.6774 258.502 22.7592 259.333Q22.841 260.163 22.9635 260.989Q23.086 261.814 23.2488 262.633Q23.4116 263.452 23.6144 264.261Q23.8172 265.071 24.0595 265.869Q24.3018 266.668 24.5829 267.454Q24.8641 268.24 25.1835 269.011Q25.5029 269.782 25.8598 270.536Q26.2166 271.291 26.6101 272.027Q27.0035 272.763 27.4326 273.479Q27.8617 274.195 28.3254 274.889Q28.7891 275.583 29.2863 276.253Q29.7834 276.924 30.3129 277.569Q30.8424 278.214 31.4029 278.832Q31.9634 279.451 32.5536 280.041L113.539 361.026C141.365 273.627 187.707 169.256 187.707 169.256L173.849 90.6633ZM232.731 480.194Q233.327 480.754 233.95 481.284Q234.572 481.815 235.22 482.315Q235.867 482.815 236.538 483.283Q237.208 483.751 237.9 484.186Q238.593 484.622 239.305 485.023Q240.018 485.425 240.749 485.792Q241.479 486.158 242.227 486.49Q242.975 486.821 243.738 487.116Q244.5 487.411 245.277 487.669Q246.053 487.927 246.84 488.147Q247.628 488.368 248.425 488.55Q249.222 488.732 250.027 488.876Q250.833 489.019 251.644 489.124Q252.455 489.229 253.27 489.295Q254.085 489.36 254.902 489.387Q255.72 489.413 256.538 489.4Q257.355 489.387 258.171 489.335Q258.988 489.283 259.8 489.191Q260.613 489.1 261.42 488.97Q262.228 488.839 263.028 488.67Q263.828 488.501 264.619 488.294Q265.41 488.086 266.19 487.841Q266.971 487.596 267.738 487.314Q268.506 487.032 269.259 486.713Q270.012 486.394 270.749 486.039Q271.486 485.684 272.205 485.294Q272.924 484.905 273.623 484.481Q274.322 484.057 275.001 483.6Q275.679 483.143 276.334 482.654Q276.99 482.164 277.621 481.644Q278.252 481.124 278.857 480.575Q279.463 480.025 280.041 479.446L288.338 471.149C269.631 474.709 250.846 477.773 232.731 480.194ZM334.417 425.071L234.435 321.537L269.84 287.346L335.828 355.678L347.907 243.544L347.784 243.424C306.477 202.81 270.036 166.98 267.471 151.619C264.042 131.08 253.952 73.9137 245.163 24.3688Q247.782 23.488 250.509 23.0417Q253.236 22.5954 256 22.5954Q256.834 22.5954 257.668 22.6364Q258.502 22.6773 259.332 22.7591Q260.163 22.8409 260.988 22.9634Q261.814 23.0859 262.633 23.2487Q263.451 23.4115 264.261 23.6143Q265.071 23.8171 265.869 24.0594Q266.668 24.3017 267.454 24.5829Q268.24 24.864 269.011 25.1834Q269.782 25.5028 270.536 25.8597Q271.291 26.2165 272.027 26.61Q272.763 27.0034 273.479 27.4325Q274.195 27.8616 274.889 28.3253Q275.583 28.789 276.253 29.2861Q276.923 29.7833 277.569 30.3128Q278.214 30.8423 278.832 31.4028Q279.451 31.9633 280.041 32.5535L479.446 231.959Q480.037 232.549 480.597 233.167Q481.158 233.786 481.687 234.431Q482.217 235.076 482.714 235.747Q483.211 236.417 483.675 237.111Q484.138 237.805 484.567 238.521Q484.997 239.237 485.39 239.973Q485.783 240.709 486.14 241.463Q486.497 242.218 486.816 242.989Q487.136 243.76 487.417 244.546Q487.698 245.332 487.94 246.13Q488.183 246.929 488.386 247.739Q488.588 248.548 488.751 249.367Q488.914 250.185 489.037 251.011Q489.159 251.837 489.241 252.667Q489.323 253.498 489.364 254.332Q489.405 255.165 489.405 256Q489.405 256.834 489.364 257.668Q489.323 258.502 489.241 259.332Q489.159 260.163 489.037 260.988Q488.914 261.814 488.751 262.633Q488.588 263.451 488.386 264.261Q488.183 265.071 487.94 265.869Q487.698 266.668 487.417 267.454Q487.136 268.24 486.816 269.011Q486.497 269.782 486.14 270.536Q485.783 271.291 485.39 272.027Q484.996 272.763 484.567 273.479Q484.138 274.195 483.675 274.889Q483.211 275.583 482.714 276.253Q482.217 276.923 481.687 277.569Q481.158 278.214 480.597 278.832Q480.037 279.451 479.446 280.041L430.526 328.962C416.4 312.565 399.707 295.147 382.48 277.807L374.112 355.488L406.99 352.497L334.417 425.071Z" id="Rectangle-2-Subtract" fill="url(#gradient_2)" fill-rule="evenodd" stroke="none" artboard="de73fee8-15e4-4e72-915c-62f2c5dcc0ea" />
    <path d="M258.583 66.989L448.303 218.985Q448.986 219.532 449.639 220.112Q450.292 220.693 450.914 221.307Q451.537 221.92 452.127 222.565Q452.717 223.21 453.273 223.884Q453.829 224.558 454.35 225.26Q454.871 225.962 455.355 226.69Q455.839 227.417 456.285 228.169Q456.731 228.921 457.137 229.694Q457.544 230.468 457.911 231.261Q458.277 232.055 458.603 232.866Q458.928 233.677 459.211 234.504Q459.494 235.331 459.734 236.171Q459.975 237.011 460.172 237.863Q460.368 238.714 460.521 239.575Q460.674 240.435 460.782 241.303Q460.891 242.17 460.954 243.042Q461.018 243.913 461.037 244.787Q461.056 245.661 461.03 246.534Q461.004 247.408 460.933 248.279Q460.862 249.15 460.746 250.017Q460.63 250.883 460.47 251.742Q460.31 252.601 460.106 253.451Q459.903 254.301 459.655 255.139Q459.408 255.978 459.118 256.802Q458.828 257.626 458.496 258.435Q458.164 259.243 457.791 260.034Q457.418 260.824 457.004 261.594Q456.591 262.364 456.139 263.112Q455.687 263.86 455.196 264.584Q454.706 265.307 454.18 266.005Q453.653 266.702 453.091 267.372Q452.53 268.041 451.934 268.681L279.39 454.083Q278.801 454.716 278.18 455.319Q277.56 455.921 276.909 456.491Q276.259 457.061 275.581 457.597Q274.902 458.133 274.197 458.634Q273.493 459.135 272.763 459.599Q272.034 460.064 271.282 460.49Q270.53 460.917 269.757 461.305Q268.984 461.693 268.193 462.041Q267.401 462.39 266.593 462.697Q265.785 463.005 264.962 463.271Q264.139 463.537 263.304 463.761Q262.469 463.984 261.623 464.166Q260.778 464.347 259.924 464.485Q259.071 464.623 258.211 464.717Q257.352 464.811 256.488 464.862Q255.625 464.912 254.76 464.919Q253.896 464.926 253.032 464.888Q252.168 464.851 251.307 464.77Q250.446 464.688 249.591 464.563Q248.735 464.439 247.887 464.27Q247.039 464.102 246.2 463.891Q245.362 463.68 244.535 463.426Q243.708 463.173 242.895 462.878Q242.083 462.582 241.286 462.246Q240.489 461.91 239.711 461.534Q238.932 461.158 238.174 460.743Q237.415 460.327 236.679 459.874Q235.942 459.421 235.23 458.931Q234.518 458.441 233.831 457.915Q233.145 457.389 232.486 456.829Q231.827 456.269 231.197 455.677Q230.567 455.084 229.969 454.46L62.5249 279.947Q61.9695 279.368 61.442 278.764Q60.9145 278.159 60.4161 277.531Q59.9177 276.902 59.4495 276.251Q58.9813 275.599 58.5443 274.926Q58.1074 274.254 57.7026 273.561Q57.2979 272.868 56.9263 272.157Q56.5547 271.446 56.217 270.719Q55.8793 269.991 55.5764 269.248Q55.2734 268.505 55.0058 267.749Q54.7382 266.993 54.5066 266.225Q54.2749 265.456 54.0798 264.678Q53.8846 263.9 53.7264 263.114Q53.5682 262.327 53.4472 261.534Q53.3263 260.741 53.2429 259.943Q53.1595 259.145 53.1138 258.344Q53.0681 257.543 53.0602 256.741Q53.0524 255.939 53.0823 255.137Q53.1123 254.336 53.1801 253.536Q53.2478 252.737 53.3532 251.942Q53.4586 251.146 53.6014 250.357Q53.7442 249.568 53.924 248.786Q54.1039 248.004 54.3204 247.231Q54.537 246.459 54.7897 245.698Q55.0424 244.936 55.3307 244.188Q55.6191 243.439 55.9424 242.705Q56.2658 241.971 56.6234 241.252Q56.981 240.534 57.3721 239.834Q57.7632 239.133 58.1869 238.452Q58.6105 237.771 59.0659 237.11Q59.5212 236.45 60.0072 235.812Q60.4932 235.173 61.0088 234.559Q61.5243 233.944 62.0683 233.354L212.336 70.4692Q212.877 69.883 213.445 69.3228Q214.012 68.7626 214.606 68.2296Q215.199 67.6966 215.817 67.192Q216.434 66.6874 217.075 66.2124Q217.716 65.7373 218.378 65.2928Q219.04 64.8484 219.723 64.4354Q220.405 64.0225 221.106 63.642Q221.807 63.2615 222.525 62.9143Q223.243 62.5671 223.977 62.2539Q224.71 61.9408 225.458 61.6624Q226.205 61.3839 226.965 61.1409Q227.724 60.8978 228.495 60.6907Q229.265 60.4835 230.044 60.3127Q230.823 60.1419 231.609 60.0078Q232.395 59.8737 233.187 59.7766Q233.979 59.6795 234.774 59.6197Q235.569 59.5598 236.367 59.5373Q237.164 59.5148 237.961 59.5298Q238.759 59.5447 239.555 59.597Q240.351 59.6493 241.143 59.7388Q241.936 59.8284 242.723 59.955Q243.511 60.0817 244.291 60.2451Q245.072 60.4085 245.844 60.6083Q246.616 60.8082 247.378 61.044Q248.14 61.2799 248.89 61.5512Q249.64 61.8225 250.377 62.1286Q251.113 62.4348 251.835 62.7752Q252.556 63.1155 253.26 63.4894Q253.965 63.8632 254.651 64.2697Q255.338 64.6761 256.004 65.1143Q256.67 65.5525 257.316 66.0214Q257.961 66.4904 258.583 66.9891L258.583 66.989Z" id="Rectangle-4" fill="#0A0A0A" fill-rule="evenodd" stroke="none" filter="url(#filter_1)" artboard="6b1df54d-b6f1-4cf6-918b-d55a5079f4ba" />
    <path d="M166.909 80.3264C171.375 95.452 180.13 125.101 166.067 164.616C145.57 222.206 111.308 246.179 98.8826 306.918C86.6278 366.823 129.607 406.709 150.521 426.119C150.813 426.39 151.1 426.656 151.383 426.919C171.95 446.02 196.935 467.624 222.883 480.417C243.876 490.767 250.602 490.129 256.121 489.606C257.424 489.482 258.66 489.365 260 489.4C260.123 489.403 259.928 487.464 259.589 484.094C258.111 469.385 253.891 427.411 261.383 400.637C267.635 378.296 279.376 355.71 289.545 335.496L252.624 290.732L238.409 304.676L238.409 387.299L204.214 387.299L204.214 288.724L203.674 288.23L204.214 287.701L204.214 172.239L238.409 172.239L238.409 254.158L301.699 192.076C299.301 188.36 296.676 184.457 293.847 180.252L293.619 179.914C268.673 142.832 173.542 67.8742 166.067 69.1327C163.721 69.5277 164.866 73.4076 166.909 80.3264ZM317.211 227.377L273.281 270.469L303.031 306.539C303.918 304.273 304.714 302.071 305.401 299.942C316.704 264.921 319.957 244.131 317.211 227.377Z" id="Rectangle-2-Subtract-2" fill="url(#gradient_3)" fill-rule="evenodd" stroke="none" filter="url(#filter_2)" artboard="336b511d-de6c-4f83-8abd-c06f18dbf746" />
  </g>
</svg>