<?xml version="1.0" encoding="utf-8"?>
<svg width="512px" height="512px" viewBox="0 0 512 512" version="1.1" xmlns:xlink="http://www.w3.org/1999/xlink" xmlns="http://www.w3.org/2000/svg">
  <defs>
    <path d="M48.999 0L463.001 0Q464.204 0 465.405 0.0590214Q466.607 0.118043 467.804 0.235944Q469.001 0.353844 470.191 0.53034Q471.38 0.706836 472.56 0.941502Q473.74 1.17617 474.907 1.46844Q476.074 1.76071 477.225 2.10988Q478.376 2.45905 479.508 2.86428Q480.641 3.26951 481.752 3.72983Q482.863 4.19014 483.951 4.70443Q485.038 5.21872 486.099 5.78574Q487.16 6.35276 488.191 6.97116Q489.223 7.58955 490.223 8.25782Q491.224 8.92609 492.19 9.64263Q493.156 10.3592 494.086 11.1223Q495.015 11.8853 495.907 12.6931Q496.798 13.5009 497.648 14.3515Q498.499 15.202 499.307 16.0933Q500.115 16.9845 500.878 17.9144Q501.641 18.8442 502.357 19.8103Q503.074 20.7765 503.742 21.7766Q504.41 22.7768 505.029 23.8085Q505.647 24.8402 506.214 25.901Q506.781 26.9619 507.296 28.0492Q507.81 29.1366 508.27 30.2479Q508.73 31.3592 509.136 32.4917Q509.541 33.6243 509.89 34.7753Q510.239 35.9264 510.532 37.0932Q510.824 38.26 511.058 39.4398Q511.293 40.6195 511.47 41.8094Q511.646 42.9992 511.764 44.1963Q511.882 45.3933 511.941 46.5947Q512 47.7961 512 48.999L512 463.001Q512 464.204 511.941 465.405Q511.882 466.607 511.764 467.804Q511.646 469.001 511.47 470.191Q511.293 471.38 511.058 472.56Q510.824 473.74 510.532 474.907Q510.239 476.074 509.89 477.225Q509.541 478.376 509.136 479.508Q508.73 480.641 508.27 481.752Q507.81 482.863 507.296 483.951Q506.781 485.038 506.214 486.099Q505.647 487.16 505.029 488.191Q504.41 489.223 503.742 490.223Q503.074 491.224 502.357 492.19Q501.641 493.156 500.878 494.086Q500.115 495.015 499.307 495.907Q498.499 496.798 497.648 497.648Q496.798 498.499 495.907 499.307Q495.015 500.115 494.086 500.878Q493.156 501.641 492.19 502.357Q491.223 503.074 490.223 503.742Q489.223 504.41 488.191 505.029Q487.16 505.647 486.099 506.214Q485.038 506.781 483.951 507.296Q482.863 507.81 481.752 508.27Q480.641 508.73 479.508 509.136Q478.376 509.541 477.225 509.89Q476.074 510.239 474.907 510.532Q473.74 510.824 472.56 511.058Q471.38 511.293 470.191 511.47Q469.001 511.646 467.804 511.764Q466.607 511.882 465.405 511.941Q464.204 512 463.001 512L48.999 512Q47.7961 512 46.5947 511.941Q45.3933 511.882 44.1963 511.764Q42.9992 511.646 41.8094 511.47Q40.6195 511.293 39.4398 511.058Q38.26 510.824 37.0932 510.532Q35.9264 510.239 34.7753 509.89Q33.6243 509.541 32.4917 509.136Q31.3592 508.73 30.2479 508.27Q29.1366 507.81 28.0492 507.296Q26.9619 506.781 25.901 506.214Q24.8402 505.647 23.8085 505.029Q22.7768 504.41 21.7766 503.742Q20.7765 503.074 19.8103 502.357Q18.8442 501.641 17.9144 500.878Q16.9845 500.115 16.0933 499.307Q15.202 498.499 14.3515 497.648Q13.5009 496.798 12.6931 495.907Q11.8853 495.015 11.1223 494.086Q10.3592 493.156 9.64263 492.19Q8.92609 491.223 8.25782 490.223Q7.58955 489.223 6.97116 488.191Q6.35276 487.16 5.78574 486.099Q5.21872 485.038 4.70443 483.951Q4.19014 482.863 3.72983 481.752Q3.26951 480.641 2.86428 479.508Q2.45905 478.376 2.10988 477.225Q1.76071 476.074 1.46844 474.907Q1.17617 473.74 0.941502 472.56Q0.706836 471.38 0.53034 470.191Q0.353844 469.001 0.235944 467.804Q0.118043 466.607 0.0590214 465.405Q0 464.204 0 463.001L0 48.999Q0 47.7961 0.0590214 46.5947Q0.118043 45.3933 0.235944 44.1963Q0.353844 42.9992 0.53034 41.8094Q0.706836 40.6195 0.941502 39.4398Q1.17617 38.26 1.46844 37.0932Q1.76071 35.9264 2.10988 34.7753Q2.45905 33.6243 2.86428 32.4917Q3.26951 31.3592 3.72983 30.2479Q4.19014 29.1366 4.70443 28.0492Q5.21872 26.9619 5.78574 25.901Q6.35276 24.8402 6.97116 23.8085Q7.58955 22.7768 8.25782 21.7766Q8.92609 20.7765 9.64263 19.8103Q10.3592 18.8442 11.1223 17.9144Q11.8853 16.9845 12.6931 16.0933Q13.5009 15.202 14.3515 14.3515Q15.202 13.5009 16.0933 12.6931Q16.9845 11.8853 17.9144 11.1223Q18.8442 10.3592 19.8103 9.64263Q20.7765 8.92609 21.7766 8.25782Q22.7768 7.58955 23.8085 6.97116Q24.8402 6.35276 25.901 5.78574Q26.9619 5.21872 28.0492 4.70443Q29.1366 4.19014 30.2479 3.72983Q31.3592 3.26951 32.4917 2.86428Q33.6243 2.45905 34.7753 2.10988Q35.9264 1.76071 37.0932 1.46844Q38.26 1.17617 39.4398 0.941502Q40.6195 0.706836 41.8094 0.53034Q42.9992 0.353844 44.1963 0.235944Q45.3933 0.118043 46.5947 0.0590214Q47.7961 0 48.999 0Z" id="path_1" />
    <rect width="512" height="512" id="artboard_1" />
    <clipPath id="clip_1">
      <use xlink:href="#artboard_1" clip-rule="evenodd" />
    </clipPath>
    <clipPath id="mask_1">
      <use xlink:href="#path_1" />
    </clipPath>
  </defs>
  <g id="Artboard-11" clip-path="url(#clip_1)">
    <g id="Rectangle-Subtract-2-+-Ka-Mask" artboard="493d44eb-a14e-4da7-8d1d-8a3a1e0b1d93">
      <path d="M48.999 0L463.001 0Q464.204 0 465.405 0.0590214Q466.607 0.118043 467.804 0.235944Q469.001 0.353844 470.191 0.53034Q471.38 0.706836 472.56 0.941502Q473.74 1.17617 474.907 1.46844Q476.074 1.76071 477.225 2.10988Q478.376 2.45905 479.508 2.86428Q480.641 3.26951 481.752 3.72983Q482.863 4.19014 483.951 4.70443Q485.038 5.21872 486.099 5.78574Q487.16 6.35276 488.191 6.97116Q489.223 7.58955 490.223 8.25782Q491.224 8.92609 492.19 9.64263Q493.156 10.3592 494.086 11.1223Q495.015 11.8853 495.907 12.6931Q496.798 13.5009 497.648 14.3515Q498.499 15.202 499.307 16.0933Q500.115 16.9845 500.878 17.9144Q501.641 18.8442 502.357 19.8103Q503.074 20.7765 503.742 21.7766Q504.41 22.7768 505.029 23.8085Q505.647 24.8402 506.214 25.901Q506.781 26.9619 507.296 28.0492Q507.81 29.1366 508.27 30.2479Q508.73 31.3592 509.136 32.4917Q509.541 33.6243 509.89 34.7753Q510.239 35.9264 510.532 37.0932Q510.824 38.26 511.058 39.4398Q511.293 40.6195 511.47 41.8094Q511.646 42.9992 511.764 44.1963Q511.882 45.3933 511.941 46.5947Q512 47.7961 512 48.999L512 463.001Q512 464.204 511.941 465.405Q511.882 466.607 511.764 467.804Q511.646 469.001 511.47 470.191Q511.293 471.38 511.058 472.56Q510.824 473.74 510.532 474.907Q510.239 476.074 509.89 477.225Q509.541 478.376 509.136 479.508Q508.73 480.641 508.27 481.752Q507.81 482.863 507.296 483.951Q506.781 485.038 506.214 486.099Q505.647 487.16 505.029 488.191Q504.41 489.223 503.742 490.223Q503.074 491.224 502.357 492.19Q501.641 493.156 500.878 494.086Q500.115 495.015 499.307 495.907Q498.499 496.798 497.648 497.648Q496.798 498.499 495.907 499.307Q495.015 500.115 494.086 500.878Q493.156 501.641 492.19 502.357Q491.223 503.074 490.223 503.742Q489.223 504.41 488.191 505.029Q487.16 505.647 486.099 506.214Q485.038 506.781 483.951 507.296Q482.863 507.81 481.752 508.27Q480.641 508.73 479.508 509.136Q478.376 509.541 477.225 509.89Q476.074 510.239 474.907 510.532Q473.74 510.824 472.56 511.058Q471.38 511.293 470.191 511.47Q469.001 511.646 467.804 511.764Q466.607 511.882 465.405 511.941Q464.204 512 463.001 512L48.999 512Q47.7961 512 46.5947 511.941Q45.3933 511.882 44.1963 511.764Q42.9992 511.646 41.8094 511.47Q40.6195 511.293 39.4398 511.058Q38.26 510.824 37.0932 510.532Q35.9264 510.239 34.7753 509.89Q33.6243 509.541 32.4917 509.136Q31.3592 508.73 30.2479 508.27Q29.1366 507.81 28.0492 507.296Q26.9619 506.781 25.901 506.214Q24.8402 505.647 23.8085 505.029Q22.7768 504.41 21.7766 503.742Q20.7765 503.074 19.8103 502.357Q18.8442 501.641 17.9144 500.878Q16.9845 500.115 16.0933 499.307Q15.202 498.499 14.3515 497.648Q13.5009 496.798 12.6931 495.907Q11.8853 495.015 11.1223 494.086Q10.3592 493.156 9.64263 492.19Q8.92609 491.223 8.25782 490.223Q7.58955 489.223 6.97116 488.191Q6.35276 487.16 5.78574 486.099Q5.21872 485.038 4.70443 483.951Q4.19014 482.863 3.72983 481.752Q3.26951 480.641 2.86428 479.508Q2.45905 478.376 2.10988 477.225Q1.76071 476.074 1.46844 474.907Q1.17617 473.74 0.941502 472.56Q0.706836 471.38 0.53034 470.191Q0.353844 469.001 0.235944 467.804Q0.118043 466.607 0.0590214 465.405Q0 464.204 0 463.001L0 48.999Q0 47.7961 0.0590214 46.5947Q0.118043 45.3933 0.235944 44.1963Q0.353844 42.9992 0.53034 41.8094Q0.706836 40.6195 0.941502 39.4398Q1.17617 38.26 1.46844 37.0932Q1.76071 35.9264 2.10988 34.7753Q2.45905 33.6243 2.86428 32.4917Q3.26951 31.3592 3.72983 30.2479Q4.19014 29.1366 4.70443 28.0492Q5.21872 26.9619 5.78574 25.901Q6.35276 24.8402 6.97116 23.8085Q7.58955 22.7768 8.25782 21.7766Q8.92609 20.7765 9.64263 19.8103Q10.3592 18.8442 11.1223 17.9144Q11.8853 16.9845 12.6931 16.0933Q13.5009 15.202 14.3515 14.3515Q15.202 13.5009 16.0933 12.6931Q16.9845 11.8853 17.9144 11.1223Q18.8442 10.3592 19.8103 9.64263Q20.7765 8.92609 21.7766 8.25782Q22.7768 7.58955 23.8085 6.97116Q24.8402 6.35276 25.901 5.78574Q26.9619 5.21872 28.0492 4.70443Q29.1366 4.19014 30.2479 3.72983Q31.3592 3.26951 32.4917 2.86428Q33.6243 2.45905 34.7753 2.10988Q35.9264 1.76071 37.0932 1.46844Q38.26 1.17617 39.4398 0.941502Q40.6195 0.706836 41.8094 0.53034Q42.9992 0.353844 44.1963 0.235944Q45.3933 0.118043 46.5947 0.0590214Q47.7961 0 48.999 0Z" id="Mask" fill="#07090D" fill-rule="evenodd" stroke="none" />
      <g clip-path="url(#mask_1)">
        <path d="M112.403 -116.922L5.34453 -68.7393L52.8759 200.825C52.8759 200.825 -110.594 568.984 -73.6398 624.517C-49.0384 661.487 151.938 637.348 296.664 598.131L118.021 413.141L167.386 365.47L259.393 460.745L276.235 304.394C276.183 304.342 276.13 304.291 276.078 304.24C218.482 247.61 167.67 197.65 164.094 176.233C155.01 121.822 112.403 -116.922 112.403 -116.922ZM324.44 352.166L312.772 460.48L414.026 451.268C391.04 420.926 358.487 386.437 324.44 352.166ZM443.619 501.289L310.262 513.422L369.807 575.083C406.542 561.384 433.3 547.027 442.676 533.477C448.321 525.317 448.182 514.343 443.619 501.289Z" id="Rectangle-Subtract-2" fill="#D3D3D3" fill-opacity="0.03137255" fill-rule="evenodd" stroke="none" />
        <g id="Ka" fill="#FFFFFF" transform="translate(55 31)">
          <path d="M62.6953 236.839L138.867 330.15L191.968 330.15L103.198 224.535L189.624 120.751L138.867 120.751L62.6953 214.647L62.6953 120.751L20.7275 120.751L20.7275 330.15L62.6953 330.15L62.6953 236.839ZM218.822 201.756Q208.787 221.239 208.787 246.434Q208.787 271.922 218.822 291.625Q228.929 311.254 246.141 322.093Q263.426 332.86 284.373 332.86Q302.977 332.86 317.186 325.243Q331.468 317.552 339.598 305.834L339.598 330.15L381.932 330.15L381.932 163.963L339.598 163.963L339.598 187.621Q331.175 176.268 317.186 168.797Q303.27 161.254 284.666 161.254Q263.426 161.254 246.141 171.8Q228.929 182.274 218.822 201.756ZM333.592 220.873Q339.598 231.786 339.598 247.02Q339.598 262.328 333.592 273.314Q327.586 284.227 317.406 290.087Q307.225 295.946 295.506 295.946Q284.08 295.946 274.046 289.94Q264.012 283.934 257.86 272.728Q251.707 261.449 251.707 246.434Q251.707 231.42 257.86 220.506Q264.012 209.52 273.9 203.88Q283.787 198.168 295.506 198.168Q307.225 198.168 317.406 204.027Q327.586 209.886 333.592 220.873Z" />
        </g>
      </g>
    </g>
  </g>
</svg>