<?xml version="1.0" encoding="utf-8"?>
<svg width="512" height="512" viewBox="0 0 512 512" fill="none" xmlns="http://www.w3.org/2000/svg">
  <defs>
    <linearGradient id="gradient_1" gradientUnits="userSpaceOnUse" x1="480" y1="10" x2="24" y2="502">
      <stop offset="0" stop-color="#141414" />
      <stop offset="0.545" stop-color="#262626" />
      <stop offset="1" stop-color="#000000" stop-opacity="0" />
    </linearGradient>
    <mask id="mask_2" x="73" y="222" width="512" height="512">
      <path d="M392 0C458.283 0 512 53.7168 512 120L512 392C512 458.283 458.283 512 392 512L120 512C53.7168 512 0 458.283 0 392L0 120C0 53.7168 53.7168 0 120 0L392 0Z" fill="url(#gradient_1)" />
    </mask>
    <path id="path_3" d="M381 0C442.312 0 492 49.6881 492 111L492 381C492 442.312 442.312 492 381 492L111 492C49.6881 492 0 442.312 0 381L0 111C0 49.6881 49.6881 0 111 0L381 0Z" />
    <linearGradient id="gradient_4" gradientUnits="userSpaceOnUse" x1="246" y1="0" x2="246" y2="492">
      <stop offset="0" stop-color="#000000" stop-opacity="0.561" />
      <stop offset="0.202" stop-color="#161616" stop-opacity="0.31" />
      <stop offset="0.787" stop-color="#292727" stop-opacity="0.102" />
      <stop offset="1" stop-color="#DF2F2F" stop-opacity="0" />
    </linearGradient>
    <linearGradient id="gradient_5" gradientUnits="userSpaceOnUse" x1="492" y1="0" x2="0" y2="492">
      <stop offset="0" stop-color="#060606" />
      <stop offset="0.74" stop-color="#202020" />
      <stop offset="1" stop-color="#141313" />
    </linearGradient>
    <mask id="mask_6" x="83" y="232" width="492" height="492">
      <g transform="translate(10 10)">
        <use p5:href="#path_3" fill="url(#gradient_4)" xmlns:p5="http://www.w3.org/1999/xlink" />
        <use p5:href="#path_3" fill="#141313" xmlns:p5="http://www.w3.org/1999/xlink" />
        <use p5:href="#path_3" fill="url(#gradient_5)" xmlns:p5="http://www.w3.org/1999/xlink" />
      </g>
    </mask>
    <radialGradient id="gradient_7" gradientUnits="userSpaceOnUse" cx="0" cy="0" r="1" gradientTransform="matrix(139.208 323.296 -162.11 69.803 176.5 0)">
      <stop offset="0.008" stop-color="#E2082B" />
      <stop offset="0.231" stop-color="#FF6079" />
      <stop offset="0.276" stop-color="#C9586A" />
      <stop offset="0.566" stop-color="#FF3252" />
      <stop offset="0.728" stop-color="#C41A35" />
    </radialGradient>
  </defs>
  <g>
    <g mask="url(#mask_6)" />
    <g transform="translate(80 80)">
      <path d="M331.755 125.208L227.793 21.2461C220.991 14.4443 213.147 9.20282 204.26 5.52168C195.373 1.84056 186.119 0 176.5 0C166.881 0 157.628 1.84056 148.741 5.52168C139.854 9.20282 132.01 14.4443 125.208 21.2461L21.2461 125.208C14.4443 132.01 9.20281 139.854 5.52168 148.741C1.84056 157.628 0 166.881 0 176.5C0 186.12 1.84056 195.373 5.52168 204.26C9.20281 213.147 14.4443 220.991 21.2461 227.793L125.208 331.755C139.372 345.919 156.469 353 176.5 353C196.531 353 213.629 345.919 227.793 331.755L331.755 227.793C338.556 220.991 343.798 213.147 347.479 204.26C351.16 195.373 353 186.12 353 176.5C353 166.881 351.16 157.628 347.479 148.741C343.798 139.854 338.556 132.01 331.755 125.208L331.755 125.208ZM315.951 145.757L207.244 37.0491C203.167 32.9722 198.465 29.8306 193.138 27.6242C187.812 25.4178 182.266 24.3146 176.5 24.3146C170.735 24.3146 165.189 25.4178 159.862 27.6242C154.535 29.8306 149.833 32.9722 145.757 37.0491L37.0491 145.757C32.9723 149.833 29.8306 154.535 27.6243 159.862C25.4179 165.189 24.3148 170.735 24.3148 176.5C24.3148 182.266 25.4179 187.812 27.6243 193.138C29.8307 198.465 32.9723 203.167 37.0492 207.243L64.0541 234.248C61.0036 226.911 55.57 207.115 73.2916 185.462C95.7029 158.076 117.173 139.199 124.313 124.702C128.518 116.166 127.771 101.341 126.446 90.5946C125.554 83.3611 129.233 80.8521 135.072 85.2141C149.498 95.9903 174.314 116.551 183.125 136.29C195.846 164.788 195.801 175.56 165.21 224.797C150.187 248.977 169.263 276.118 184.364 297.602C191.191 307.316 197.206 315.874 198.889 322.478C200.409 321.565 201.868 320.562 203.266 319.47C204.663 318.378 205.99 317.205 207.244 315.951L315.951 207.243C324.441 198.754 328.685 188.506 328.685 176.5C328.685 164.494 324.441 154.246 315.951 145.757L315.951 145.757Z" fill="url(#gradient_7)" fill-rule="evenodd" />
    </g>
  </g>
</svg>