<?xml version="1.0" encoding="utf-8"?>
<svg width="154.60486px" height="83.130554px" viewBox="0 0 154.60486 83.130554" version="1.1" xmlns:xlink="http://www.w3.org/1999/xlink" xmlns="http://www.w3.org/2000/svg">
  <path d="M3.33513 47.2339C3.33513 47.2339 14.5869 41.1758 24.4887 32.1147C34.3906 23.0536 42.9425 10.9895 42.9425 10.9895C42.9425 10.9895 41.362 21.1091 42.0807 27.9464C42.7993 34.7837 45.8172 38.3388 45.8172 38.3388C45.8172 38.3388 59.1014 50.4488 89.6881 47.2339C120.275 44.019 137.02 18.5712 137.02 18.5712L150.576 29.3008C150.576 29.3008 124.173 60.7539 93.188 63.5669C62.2032 66.3798 47.3851 53.2567 47.3851 53.2567C47.3851 53.2567 44.6905 57.8841 45.3569 64.2242C46.0233 70.5643 50.0507 78.6169 50.0507 78.6169C50.0507 78.6169 37.2249 66.8894 25.546 59.0437C13.8671 51.1979 3.33513 47.2339 3.33513 47.2339Z" id="Rectangle" fill="#D3D3D3" fill-rule="evenodd" stroke="none" />
</svg>