<?xml version="1.0" encoding="utf-8"?>
<svg width="524px" height="524px" viewBox="0 0 524 524" version="1.1" xmlns:xlink="http://www.w3.org/1999/xlink" xmlns="http://www.w3.org/2000/svg">
  <defs>
    <path d="M512 0L512 0L512 512L0 512L0 0L512 0Z" id="path_1" />
    <path d="M0 0L512 0L512 512L0 512L0 0Z" id="path_2" />
    <clipPath id="clip_1">
      <use xlink:href="#path_1" />
    </clipPath>
    <clipPath id="mask_1">
      <use xlink:href="#path_2" />
    </clipPath>
  </defs>
  <g id="logo" clip-path="url(#clip_1)" transform="translate(6 4)">
    <path d="M512 0L512 0L512 512L0 512L0 0L512 0Z" id="logo"   />
    <g id="Mask-Group" transform="translate(0 0.00012207031)">
      <path d="M0 0L512 0L512 512L0 512L0 0Z" id="artboard_1"   />
      <g clip-path="url(#mask_1)">
        <g id="Artboard-19" transform="translate(23.191101 22.595398)">
          <path d="M456.851 209.447L257.445 10.0409C257.052 9.64746 256.649 9.26389 256.237 8.89022C255.824 8.51656 255.403 8.15322 254.973 7.80022Q254.328 7.27082 253.658 6.77362C253.211 6.44216 252.756 6.12186 252.293 5.81273C251.83 5.50359 251.36 5.20599 250.883 4.91993C250.406 4.63386 249.922 4.35969 249.431 4.09743C248.94 3.83516 248.444 3.58506 247.941 3.34712C247.438 3.10926 246.929 2.88386 246.415 2.67093C245.901 2.45799 245.382 2.25779 244.858 2.07033C244.334 1.88286 243.806 1.70836 243.274 1.54683C242.741 1.38529 242.205 1.23693 241.666 1.10172C241.126 0.966526 240.583 0.844658 240.037 0.736124C239.492 0.62759 238.944 0.532492 238.393 0.450825C237.842 0.369225 237.29 0.301157 236.737 0.246624C236.183 0.192091 235.628 0.151159 235.073 0.123825C234.517 0.0964909 233.961 0.0828247 233.404 0.0828247Q232.57 0.0828238 231.736 0.123825C231.181 0.151159 230.626 0.192091 230.072 0.246624C229.518 0.301157 228.966 0.369225 228.416 0.450825C227.865 0.532492 227.317 0.62759 226.772 0.736124Q225.953 0.899025 225.143 1.10183C224.604 1.23702 224.068 1.38536 223.535 1.54683C223.002 1.70836 222.474 1.88286 221.951 2.07033C221.427 2.25779 220.908 2.45799 220.394 2.67093C219.879 2.88386 219.371 3.10926 218.868 3.34712C218.365 3.58506 217.868 3.83516 217.377 4.09743C216.886 4.35976 216.402 4.63392 215.925 4.91993C215.448 5.20599 214.979 5.50359 214.516 5.81273C214.053 6.12186 213.598 6.44216 213.151 6.77362C212.704 7.10509 212.266 7.44733 211.836 7.80033C211.406 8.15332 210.985 8.51666 210.572 8.89033C210.16 9.26399 209.757 9.64753 209.364 10.0409L9.958 209.447C9.5646 209.84 9.18107 210.243 8.8074 210.656C8.43373 211.068 8.0704 211.489 7.7174 211.919Q7.1879 212.564 6.6907 213.235C6.35923 213.681 6.03893 214.136 5.7298 214.599C5.42067 215.061 5.12307 215.531 4.837 216.009C4.551 216.486 4.27683 216.97 4.0145 217.461C3.75224 217.951 3.50213 218.448 3.2642 218.951C3.02633 219.454 2.80093 219.963 2.588 220.477C2.37507 220.991 2.17487 221.51 1.9874 222.034C1.79993 222.558 1.62547 223.086 1.464 223.619C1.30247 224.151 1.1541 224.687 1.0189 225.227Q0.816102 226.036 0.653301 226.855C0.544701 227.401 0.4496 227.949 0.368 228.499Q0.2455 229.325 0.1637 230.155C0.109167 230.709 0.0682354 231.264 0.0409012 231.82C0.0136337 232.375 0 232.931 0 233.488Q-1.39698e-09 234.323 0.0409012 235.156C0.0682354 235.712 0.109167 236.266 0.1637 236.82C0.218233 237.374 0.286333 237.926 0.368 238.477Q0.4904 239.302 0.653301 240.121C0.761835 240.666 0.883701 241.209 1.0189 241.749C1.1541 242.289 1.30247 242.825 1.464 243.357C1.62547 243.889 1.79993 244.418 1.9874 244.942C2.17487 245.466 2.37507 245.985 2.588 246.499C2.80093 247.013 3.02637 247.521 3.2643 248.024C3.50217 248.527 3.75224 249.024 4.0145 249.515C4.27683 250.005 4.55103 250.489 4.8371 250.967C5.12317 251.444 5.42077 251.914 5.7299 252.377C6.03897 252.839 6.35923 253.294 6.6907 253.741Q7.1879 254.412 7.7174 255.057C8.0704 255.487 8.43373 255.908 8.8074 256.32C9.18107 256.732 9.56463 257.135 9.9581 257.529L209.364 456.934C209.757 457.327 210.16 457.711 210.572 458.085C210.985 458.458 211.406 458.821 211.836 459.175C212.266 459.527 212.705 459.87 213.152 460.202C213.599 460.533 214.053 460.853 214.516 461.162C214.979 461.471 215.449 461.769 215.926 462.055C216.403 462.341 216.887 462.615 217.378 462.878C217.869 463.14 218.365 463.39 218.868 463.628C219.371 463.866 219.88 464.091 220.394 464.304C220.908 464.517 221.427 464.717 221.951 464.905C222.475 465.092 223.003 465.266 223.535 465.428C224.068 465.59 224.604 465.738 225.144 465.873Q225.953 466.076 226.772 466.239C227.317 466.347 227.865 466.442 228.416 466.524C228.967 466.606 229.519 466.674 230.072 466.728C230.626 466.782 231.181 466.823 231.736 466.851C232.292 466.878 232.848 466.892 233.405 466.892C233.961 466.892 234.517 466.878 235.073 466.851C235.629 466.823 236.184 466.783 236.737 466.729C237.291 466.674 237.843 466.606 238.393 466.524C238.944 466.442 239.492 466.347 240.038 466.239C240.583 466.13 241.126 466.008 241.666 465.873C242.205 465.738 242.741 465.59 243.274 465.428C243.807 465.266 244.335 465.092 244.859 464.905C245.382 464.717 245.901 464.517 246.416 464.304C246.93 464.091 247.438 463.866 247.941 463.628C248.444 463.39 248.941 463.14 249.432 462.878C249.923 462.615 250.407 462.341 250.884 462.055C251.361 461.769 251.831 461.471 252.294 461.162C252.756 460.853 253.211 460.533 253.658 460.202C254.105 459.87 254.543 459.527 254.973 459.175C255.404 458.821 255.825 458.458 256.237 458.085C256.649 457.711 257.052 457.327 257.446 456.934L456.851 257.529C457.244 257.135 457.628 256.732 458.002 256.32C458.375 255.908 458.739 255.486 459.092 255.056C459.445 254.626 459.787 254.187 460.118 253.741C460.45 253.293 460.77 252.838 461.079 252.376C461.388 251.913 461.686 251.443 461.972 250.967C462.258 250.489 462.532 250.005 462.795 249.515C463.057 249.024 463.307 248.527 463.545 248.024C463.783 247.521 464.008 247.012 464.221 246.498C464.434 245.984 464.634 245.465 464.822 244.942C465.009 244.418 465.184 243.889 465.345 243.357C465.506 242.824 465.655 242.288 465.79 241.749C465.925 241.209 466.047 240.666 466.156 240.12C466.265 239.574 466.36 239.026 466.441 238.476C466.523 237.926 466.591 237.374 466.645 236.82C466.7 236.266 466.741 235.712 466.768 235.156C466.795 234.6 466.809 234.044 466.809 233.488C466.809 232.931 466.795 232.375 466.768 231.819C466.741 231.263 466.7 230.709 466.645 230.155C466.591 229.601 466.523 229.049 466.441 228.499C466.36 227.948 466.265 227.4 466.156 226.855C466.047 226.309 465.925 225.766 465.79 225.227C465.655 224.687 465.506 224.15 465.345 223.618C465.184 223.086 465.009 222.558 464.822 222.034C464.634 221.51 464.434 220.991 464.221 220.477C464.008 219.963 463.783 219.454 463.545 218.951C463.307 218.448 463.057 217.951 462.795 217.461C462.532 216.97 462.258 216.486 461.972 216.009Q461.543 215.293 461.079 214.599C460.77 214.136 460.45 213.681 460.118 213.234C459.787 212.787 459.445 212.349 459.092 211.919C458.739 211.489 458.375 211.067 458.002 210.655C457.628 210.243 457.244 209.84 456.851 209.447ZM424.112 190.39L234.392 38.3936C233.977 38.0612 233.555 37.7387 233.125 37.426C232.694 37.1134 232.257 36.811 231.813 36.5189C231.369 36.2268 230.918 35.9452 230.46 35.6743C230.003 35.4033 229.539 35.1432 229.069 34.894C228.6 34.6447 228.125 34.4067 227.644 34.1798C227.163 33.9529 226.677 33.7373 226.186 33.5332Q225.449 33.2271 224.699 32.9558Q223.949 32.6845 223.187 32.4486C222.679 32.2914 222.168 32.1462 221.653 32.0129C221.138 31.8797 220.621 31.7586 220.1 31.6497C219.58 31.5408 219.057 31.4441 218.532 31.3596C218.007 31.2752 217.481 31.2031 216.952 31.1434C216.424 31.0837 215.895 31.0365 215.364 31.0016C214.833 30.9667 214.302 30.9443 213.77 30.9344C213.239 30.9244 212.707 30.9269 212.176 30.9419C211.644 30.9569 211.113 30.9844 210.583 31.0243C210.053 31.0642 209.524 31.1165 208.996 31.1812C208.468 31.2459 207.942 31.323 207.418 31.4124C206.894 31.5018 206.372 31.6034 205.853 31.7173C205.334 31.8312 204.817 31.9572 204.304 32.0953C203.79 32.2334 203.28 32.3834 202.774 32.5455C202.267 32.7075 201.765 32.8813 201.267 33.067C200.768 33.2526 200.275 33.4498 199.786 33.6585C199.297 33.8673 198.813 34.0874 198.334 34.3189C197.855 34.5504 197.382 34.7929 196.915 35.0466C196.448 35.3003 195.987 35.5647 195.532 35.84C195.077 36.1153 194.628 36.4011 194.187 36.6974C193.746 36.9937 193.311 37.3003 192.884 37.617C192.457 37.9337 192.037 38.2602 191.626 38.5966C191.214 38.933 190.81 39.2789 190.415 39.6342C190.019 39.9895 189.632 40.3539 189.254 40.7274C188.875 41.1009 188.506 41.483 188.145 41.8738L37.8772 204.759C37.5145 205.152 37.1614 205.554 36.8177 205.964C36.474 206.373 36.1401 206.791 35.8161 207.217C35.4921 207.642 35.1783 208.075 34.8748 208.515Q34.4194 209.176 33.9958 209.857C33.7133 210.311 33.4417 210.771 33.181 211.239C32.9203 211.705 32.6707 212.178 32.4323 212.657C32.1939 213.136 31.9669 213.62 31.7513 214.11C31.5358 214.599 31.3319 215.093 31.1396 215.593C30.9474 216.091 30.7671 216.595 30.5986 217.103C30.4301 217.61 30.2737 218.121 30.1293 218.636C29.985 219.151 29.8528 219.669 29.7329 220.191C29.613 220.712 29.5055 221.236 29.4103 221.762Q29.2675 222.551 29.1621 223.347C29.0918 223.877 29.0341 224.408 28.989 224.941Q28.9212 225.741 28.8912 226.542C28.8713 227.076 28.8639 227.611 28.8691 228.146C28.8744 228.68 28.8922 229.215 28.9227 229.749C28.9532 230.283 28.9962 230.816 29.0518 231.348C29.1074 231.88 29.1755 232.41 29.2561 232.939C29.3368 233.467 29.4298 233.994 29.5353 234.519C29.6408 235.043 29.7586 235.564 29.8887 236.083C30.0188 236.601 30.161 237.117 30.3155 237.63C30.4699 238.142 30.6363 238.65 30.8147 239.154C30.9931 239.658 31.1833 240.157 31.3853 240.653C31.5872 241.148 31.8008 241.638 32.0259 242.124C32.251 242.608 32.4875 243.088 32.7352 243.562Q33.1068 244.273 33.5115 244.966C33.7814 245.428 34.0619 245.883 34.3532 246.331C34.6445 246.779 34.9463 247.221 35.2584 247.656C35.5705 248.09 35.8927 248.516 36.225 248.936C36.5573 249.354 36.8992 249.765 37.2509 250.169C37.6026 250.571 37.9635 250.966 38.3338 251.352L205.778 425.865C206.177 426.281 206.586 426.686 207.006 427.082C207.426 427.476 207.856 427.86 208.295 428.234Q208.954 428.794 209.64 429.32Q210.327 429.846 211.039 430.336C211.514 430.662 211.997 430.977 212.488 431.279C212.979 431.581 213.477 431.87 213.983 432.148C214.488 432.424 215.001 432.688 215.52 432.939C216.039 433.189 216.564 433.427 217.095 433.651C217.626 433.875 218.163 434.085 218.704 434.283C219.246 434.479 219.793 434.662 220.344 434.831C220.895 435 221.45 435.155 222.009 435.296C222.568 435.436 223.131 435.563 223.696 435.675C224.261 435.787 224.829 435.885 225.4 435.968C225.97 436.051 226.542 436.12 227.116 436.175C227.69 436.229 228.265 436.268 228.841 436.293C229.417 436.318 229.993 436.328 230.569 436.324C231.146 436.319 231.722 436.3 232.297 436.267C232.873 436.233 233.447 436.184 234.02 436.122C234.593 436.059 235.164 435.982 235.733 435.89C236.302 435.798 236.869 435.691 237.432 435.571C237.996 435.449 238.556 435.314 239.113 435.166C239.67 435.016 240.222 434.853 240.771 434.676C241.32 434.498 241.863 434.307 242.402 434.102C242.941 433.897 243.474 433.678 244.002 433.446C244.529 433.214 245.051 432.968 245.566 432.71C246.081 432.451 246.59 432.179 247.091 431.895C247.592 431.611 248.086 431.314 248.572 431.004C249.059 430.694 249.537 430.373 250.006 430.039C250.476 429.705 250.937 429.359 251.39 429.002C251.842 428.644 252.285 428.276 252.718 427.896C253.152 427.516 253.576 427.125 253.989 426.724C254.403 426.322 254.806 425.91 255.199 425.488L427.743 240.086C428.14 239.659 428.526 239.223 428.9 238.777C429.275 238.33 429.638 237.874 429.989 237.41C430.34 236.944 430.678 236.471 431.005 235.989C431.332 235.506 431.647 235.015 431.948 234.517C432.249 234.018 432.538 233.512 432.813 232.999C433.089 232.485 433.351 231.965 433.6 231.439C433.849 230.911 434.084 230.378 434.305 229.84C434.526 229.3 434.734 228.756 434.927 228.207C435.12 227.657 435.299 227.103 435.464 226.544Q435.712 225.706 435.915 224.856C436.051 224.289 436.172 223.719 436.279 223.147C436.386 222.574 436.478 221.999 436.555 221.422C436.632 220.844 436.695 220.264 436.742 219.684C436.789 219.103 436.822 218.521 436.839 217.939C436.856 217.357 436.859 216.774 436.846 216.192C436.833 215.609 436.806 215.027 436.763 214.447C436.721 213.865 436.664 213.286 436.591 212.708C436.519 212.129 436.432 211.553 436.33 210.98C436.228 210.406 436.112 209.835 435.981 209.268C435.85 208.7 435.704 208.136 435.543 207.576C435.383 207.016 435.209 206.46 435.02 205.909C434.831 205.357 434.629 204.811 434.412 204.271C434.195 203.73 433.964 203.195 433.72 202.666C433.475 202.137 433.217 201.615 432.946 201.099C432.675 200.583 432.391 200.075 432.094 199.574C431.797 199.072 431.487 198.579 431.164 198.095C430.841 197.609 430.506 197.133 430.159 196.665C429.812 196.197 429.453 195.738 429.082 195.289C428.711 194.839 428.329 194.4 427.936 193.97C427.543 193.54 427.138 193.12 426.723 192.712C426.308 192.302 425.883 191.904 425.448 191.517C425.013 191.13 424.567 190.754 424.112 190.39Z" id="Rectangle-3-Subtract"fill-rule="evenodd" stroke="none" />
          <path d="M144.718 57.731C149.184 72.8566 157.939 102.506 143.876 142.021C123.379 199.611 89.1169 223.584 76.6915 284.323C64.4367 344.228 107.416 384.114 128.33 403.524C128.622 403.795 128.909 404.061 129.192 404.324C149.759 423.425 174.744 445.029 200.692 457.822C221.685 468.172 228.411 467.534 233.93 467.011C235.233 466.887 236.469 466.77 237.809 466.805C237.932 466.808 237.737 464.869 237.398 461.499C235.92 446.79 231.7 404.816 239.192 378.042C245.444 355.701 257.185 333.115 267.354 312.901L230.433 268.137L216.218 282.081L216.218 364.704L182.023 364.704L182.023 266.129L181.483 265.635L182.023 265.106L182.023 149.644L216.218 149.644L216.218 231.563L279.508 169.481C277.11 165.765 274.485 161.862 271.656 157.657L271.428 157.319C246.482 120.237 151.351 45.2788 143.876 46.5373C141.53 46.9323 142.675 50.8122 144.718 57.731L144.718 57.731ZM295.02 204.782L251.09 247.874L280.84 283.944C281.727 281.678 282.523 279.476 283.21 277.347C294.513 242.326 297.766 221.536 295.02 204.782L295.02 204.782Z" id="Rectangle-2-Subtract-2"  fill-rule="evenodd" stroke="none" />
        </g>
      </g>
    </g>
  </g>
</svg>