<?xml version="1.0" encoding="utf-8"?>
<svg width="220.95963px" height="295.48087px" viewBox="0 0 220.95963 295.48087" version="1.1" xmlns:xlink="http://www.w3.org/1999/xlink" xmlns="http://www.w3.org/2000/svg">
  <path d="M130.021 0L82.9256 11.4985L82.9256 120.555C82.9256 120.555 -10.1558 253.699 0.914612 278.045C8.22423 294.12 90.568 298.612 152.213 293.441L95.6695 209.611L119.215 193.729L148.725 237.479L167.262 177.653C166.995 177.293 166.728 176.933 166.462 176.574C147.058 150.369 129.939 127.251 130.021 118.6C130.229 96.623 130.021 0 130.021 0ZM183.058 199.18L170.182 240.735L211.937 243.467C204.82 230.177 194.254 214.698 183.058 199.18ZM220.553 265.3L165.041 261.668L183.856 289.562C200.484 286.704 212.959 282.843 217.887 278.044C220.806 275.202 221.522 270.822 220.553 265.3Z" id="Rectangle-Subtract" fill="#D3D3D3" fill-rule="evenodd" stroke="none" />
</svg>