<?xml version="1.0" encoding="utf-8"?>
<svg width="1280px" height="255px" viewBox="0 0 1280 255" version="1.1" xmlns:xlink="http://www.w3.org/1999/xlink" xmlns="http://www.w3.org/2000/svg">
  <defs>
    <rect width="1280" height="255" id="artboard_1" />
    <clipPath id="clip_1">
      <use xlink:href="#artboard_1" clip-rule="evenodd" />
    </clipPath>
  </defs>
  <g id="Artboard-2" clip-path="url(#clip_1)">
    <path d="M277.184 -101.094L224.973 -88.3467L224.973 32.5549C224.973 32.5549 121.781 180.161 134.054 207.151C142.158 224.972 233.446 229.953 301.787 224.219L239.099 131.28L265.202 113.674L297.917 162.175L318.467 95.8515C318.172 95.4531 317.877 95.0554 317.583 94.6583C296.071 65.6076 277.093 39.9788 277.184 30.3882C277.414 6.02377 277.184 -101.094 277.184 -101.094ZM335.978 119.716L321.704 165.785L367.995 168.813C360.104 154.079 348.39 136.919 335.978 119.716ZM377.549 193.017L316.004 188.991L336.866 219.92C355.301 216.751 369.13 212.47 374.594 207.151C377.831 203.999 378.624 199.142 377.549 193.017Z" id="Rectangle-Subtract-2" fill="#090B11" fill-rule="evenodd" stroke="none" artboard="abac3211-4af5-4ab2-85c4-c3411161f58e" />
    <g id="arbonized" fill="#090B11" transform="translate(378 39)" artboard="7632e626-4e4f-4a76-b3ca-d2a0f7c42f63">
      <path d="M467.273 70.0608Q460.804 70.0608 456.691 66.2639Q452.578 62.4319 452.578 56.8069Q452.578 51.0412 456.691 47.2444Q460.804 43.4123 467.273 43.4123Q473.601 43.4123 477.714 47.2444Q481.828 51.0412 481.828 56.8069Q481.828 62.4319 477.714 66.2639Q473.601 70.0608 467.273 70.0608ZM202.896 80.7131Q196.428 84.1584 192.947 89.7834L192.947 52.2014L168.338 52.2014L168.338 158.76L192.947 158.76L192.947 147.545Q196.568 153.135 202.896 156.545Q209.224 159.92 217.732 159.92Q227.681 159.92 235.732 154.822Q243.783 149.69 248.459 140.268Q253.135 130.811 253.135 118.436Q253.135 106.061 248.459 96.7092Q243.783 87.3225 235.732 82.2952Q227.681 77.2678 217.732 77.2678Q209.365 77.2678 202.896 80.7131ZM657.295 96.7092Q652.619 106.061 652.619 118.436Q652.619 130.811 657.295 140.268Q661.971 149.69 670.022 154.822Q678.107 159.92 688.022 159.92Q696.529 159.92 702.928 156.475Q709.361 152.994 712.807 147.229L712.807 158.76L737.416 158.76L737.416 52.2014L712.807 52.2014L712.807 89.5022Q709.045 83.8772 702.506 80.5725Q695.967 77.2678 688.022 77.2678Q678.107 77.2678 670.022 82.2952Q661.971 87.3225 657.295 96.7092ZM4.04297 118.436Q4.04297 106.061 8.71875 96.7092Q13.3945 87.3225 21.4453 82.2952Q29.5312 77.2678 39.4453 77.2678Q47.9531 77.2678 54.3516 80.7131Q60.7852 84.1584 64.2305 89.7834L64.2305 78.3928L88.8398 78.3928L88.8398 158.76L64.2305 158.76L64.2305 147.369Q60.6094 152.994 54.2109 156.475Q47.8125 159.92 39.3047 159.92Q29.5312 159.92 21.4453 154.822Q13.3945 149.69 8.71875 140.268Q4.04297 130.811 4.04297 118.436ZM302.676 159.92Q290.864 159.92 281.442 154.893Q272.02 149.83 266.606 140.479Q261.227 131.127 261.227 118.576Q261.227 106.201 266.676 96.7795Q272.161 87.3225 281.653 82.2952Q291.18 77.2678 302.993 77.2678Q314.77 77.2678 324.262 82.2952Q333.79 87.3225 339.239 96.7795Q344.723 106.201 344.723 118.576Q344.723 130.951 339.168 140.408Q333.649 149.83 324.051 154.893Q314.489 159.92 302.676 159.92ZM644.528 117.276Q644.528 120.756 644.107 124.483L588.384 124.483Q588.946 131.971 593.2 135.944Q597.454 139.881 603.642 139.881Q612.853 139.881 616.474 132.112L642.665 132.112Q640.661 140.057 635.388 146.385Q630.15 152.713 622.204 156.334Q614.294 159.92 604.521 159.92Q592.708 159.92 583.497 154.893Q574.286 149.83 569.083 140.479Q563.915 131.127 563.915 118.576Q563.915 106.061 569.013 96.7092Q574.146 87.3225 583.357 82.2952Q592.568 77.2678 604.521 77.2678Q616.193 77.2678 625.263 82.1545Q634.333 87.0412 639.431 96.1116Q644.528 105.182 644.528 117.276ZM131.315 91.7873Q135.639 85.178 142.108 81.3811Q148.612 77.5491 156.522 77.5491L156.522 103.6L149.772 103.6Q140.561 103.6 135.921 107.572Q131.315 111.545 131.315 121.459L131.315 158.76L106.706 158.76L106.706 78.3928L131.315 78.3928L131.315 91.7873ZM429.314 86.6897Q420.912 77.5491 406.814 77.5491Q398.869 77.5491 392.541 80.6428Q386.213 83.7366 382.451 89.0803L382.451 78.3928L357.842 78.3928L357.842 158.76L382.451 158.76L382.451 115.131Q382.451 107.08 386.635 102.615Q390.818 98.1506 397.885 98.1506Q404.916 98.1506 409.1 102.615Q413.283 107.08 413.283 115.131L413.283 158.76L437.752 158.76L437.752 111.826Q437.752 95.8303 429.314 86.6897ZM479.507 158.76L454.898 158.76L454.898 78.3928L479.507 78.3928L479.507 158.76ZM555.28 138.44L520.405 138.44L554.542 97.9748L554.542 78.3928L493.194 78.3928L493.194 98.7131L526.311 98.7131L492.913 139.178L492.913 158.76L555.28 158.76L555.28 138.44ZM619.357 110.807Q619.357 104.479 615.032 100.752Q610.708 96.9905 604.239 96.9905Q598.017 96.9905 593.763 100.612Q589.544 104.197 588.525 110.807L619.357 110.807ZM302.676 138.615Q309.743 138.615 314.7 133.447Q319.692 128.244 319.692 118.576Q319.692 108.944 314.84 103.776Q310.024 98.5725 302.993 98.5725Q295.786 98.5725 291.004 103.705Q286.258 108.803 286.258 118.576Q286.258 128.244 290.934 133.447Q295.645 138.615 302.676 138.615ZM64.2305 118.576Q64.2305 109.365 59.0977 104.057Q54 98.7131 46.6523 98.7131Q39.3047 98.7131 34.1719 103.987Q29.0742 109.225 29.0742 118.436Q29.0742 127.647 34.1719 133.061Q39.3047 138.44 46.6523 138.44Q54 138.44 59.0977 133.131Q64.2305 127.787 64.2305 118.576ZM222.971 103.987Q228.103 109.225 228.103 118.436Q228.103 127.647 222.9 133.061Q217.732 138.44 210.385 138.44Q203.037 138.44 197.904 133.131Q192.806 127.787 192.806 118.576Q192.806 109.365 197.904 104.057Q203.037 98.7131 210.385 98.7131Q217.873 98.7131 222.971 103.987ZM707.674 104.057Q712.807 109.365 712.807 118.576Q712.807 127.787 707.674 133.131Q702.576 138.44 695.229 138.44Q687.881 138.44 682.748 133.061Q677.65 127.647 677.65 118.436Q677.65 109.225 682.748 103.987Q687.881 98.7131 695.229 98.7131Q702.576 98.7131 707.674 104.057Z" />
    </g>
  </g>
</svg>