<?xml version="1.0" encoding="utf-8"?>
<svg width="412.12183px" height="412.1218px" viewBox="0 0 412.12183 412.1218" version="1.1" xmlns:xlink="http://www.w3.org/1999/xlink" xmlns="http://www.w3.org/2000/svg">
  <defs>
    <linearGradient gradientUnits="objectBoundingBox" x1="0.5" y1="0" x2="0.8943559" y2="0.91585207" id="gradient_1">
      <stop offset="1.1235955%" stop-color="#F54E69" />
      <stop offset="98.314606%" stop-color="#E2082B" />
    </linearGradient>
  </defs>
  <g id="Group-3">
    <path d="M401.223 199.82C405.91 204.507 405.91 212.104 401.223 216.79L216.696 401.318C212.009 406.005 204.412 406.005 199.725 401.318L10.5118 212.104C5.82489 207.418 5.82487 199.821 10.5118 195.134L195.039 10.6067C199.726 5.91973 207.323 5.91973 212.01 10.6067L401.223 199.82Z" id="Rectangle" fill="#141313" stroke="none" />
    <path d="M234.177 11.6479C218.647 -3.88262 193.475 -3.88262 177.944 11.6479L11.6479 177.944C-3.88262 193.475 -3.88262 218.647 11.6479 234.177L177.944 400.474C193.475 416.004 218.647 416.004 234.178 400.474L400.474 234.178C416.004 218.647 416.004 193.475 400.474 177.944L234.177 11.6479L234.177 11.6479ZM235.504 33.5163C219.974 17.9858 194.801 17.9858 179.271 33.5163L34.8428 177.944C19.3124 193.475 19.3124 218.647 34.8428 234.177L179.271 378.606C194.801 394.136 219.974 394.136 235.504 378.606L379.932 234.178C395.463 218.647 395.463 193.475 379.932 177.944L235.504 33.5163L235.504 33.5163ZM186.424 63.3918C196.534 53.2818 212.921 53.2818 223.031 63.3918L348.612 188.973C358.722 199.083 358.722 215.469 348.612 225.579L223.031 351.16C220.029 354.162 216.473 356.273 212.693 357.492C212.699 354.743 212.497 352.843 212.315 351.133C211.817 346.464 211.471 343.213 215.939 327.961C222.043 307.124 228.932 298.394 237.11 274.144C245.287 249.895 244.712 247.86 248.648 230.963C252.585 214.066 249.641 187.8 231.283 161.976C210.655 132.958 177.845 104.879 158.91 90.9067L186.424 63.3918L186.424 63.3918ZM93.7762 258.354C93.7672 258.398 93.7582 258.441 93.7493 258.485L60.8436 225.579C50.7336 215.469 50.7336 199.083 60.8436 188.973L153.27 94.7492C153.814 97.3264 154.723 100.443 155.746 103.956C159.589 117.141 165.058 135.907 159.022 152.664C143.613 195.437 103.117 213.242 93.7762 258.354L93.7762 258.354Z" id="Vector" fill="url(#gradient_1)" fill-rule="evenodd" stroke="none" />
  </g>
</svg>