<?xml version="1.0" encoding="utf-8"?>
<svg width="514.77374px" height="514.77374px" viewBox="0 0 514.77374 514.77374" version="1.1" xmlns:xlink="http://www.w3.org/1999/xlink" xmlns="http://www.w3.org/2000/svg">
  <defs>
    <linearGradient gradientUnits="objectBoundingBox" x1="0.5" y1="0" x2="0.8943559" y2="0.91585207" id="gradient_1">
      <stop offset="1.1235955%" stop-color="#F54E69" />
      <stop offset="98.314606%" stop-color="#E2082B" />
    </linearGradient>
    <path d="M231.931 25.4559C245.992 11.3951 268.782 11.3951 282.843 25.4558L489.318 231.931C503.379 245.992 503.379 268.782 489.318 282.843L282.843 489.318C268.782 503.379 245.992 503.379 231.931 489.318L25.4558 282.843C11.3951 268.782 11.3951 245.992 25.4558 231.931L231.931 25.4559Z" id="path_1" />
    <clipPath id="clip_1">
      <use xlink:href="#path_1" />
    </clipPath>
  </defs>
  <g id="Group">
    <path d="M282.843 25.4559C268.782 11.3951 245.992 11.3951 231.931 25.4559L174.408 82.9786C187.325 89.0169 255.373 140.344 293.5 193.978C319.032 229.893 319.02 273.388 318 283.978C317.84 285.641 317.753 287.63 317.651 289.923C317.107 302.235 316.175 323.331 301.604 349.979C284.318 381.59 278.696 401.749 272.159 424.826C265.993 446.597 267.415 478.096 269.053 497.929C274.091 496.208 278.823 493.337 282.843 489.318L489.318 282.843C503.379 268.782 503.379 245.992 489.318 231.931L282.843 25.4559ZM100.328 357.714C99.5728 348.412 100.085 338.512 102.258 328.018C115.249 265.277 151.071 240.514 172.502 181.026C187.205 140.21 178.052 109.584 173.383 93.9597L173.382 93.9582C172.394 90.6507 171.606 88.0155 171.289 86.0983L25.4559 231.931C11.3951 245.992 11.3951 268.782 25.4559 282.843L100.328 357.714Z" id="Rec-Subtract" fill="#2E2E2E" fill-rule="evenodd" stroke="none" />
    <g id="Rec">
      <use stroke="none" fill="#141313" xlink:href="#path_1" />
      <g clip-path="url(#clip_1)">
        <use xlink:href="#path_1" fill="none" stroke="url(#gradient_1)" stroke-width="12" />
      </g>
    </g>
    <path d="M233.214 66.8522C246.6 53.4659 268.297 53.4659 281.683 66.8522L447.96 233.129C461.347 246.516 461.347 268.213 447.96 281.599L281.683 447.876C277.708 451.851 273 454.646 267.995 456.26C268.026 442.681 264.21 444.749 272.292 417.159C280.375 389.57 289.497 378.01 300.324 345.902C311.152 313.794 310.391 311.1 315.602 288.727C320.814 266.354 316.917 231.577 292.61 197.385C265.296 158.963 221.854 121.784 196.782 103.284L233.214 66.8522L233.214 66.8522ZM110.541 324.995C110.529 325.053 110.517 325.111 110.506 325.168L66.9365 281.599C53.5502 268.213 53.5502 246.516 66.9365 233.129L189.314 108.371C192.742 124.593 207.052 156.956 196.931 185.054C176.528 241.689 122.909 265.264 110.541 324.995L110.541 324.995Z" id="Vector" fill="url(#gradient_1)" fill-rule="evenodd" stroke="none" />
  </g>
</svg>