<svg width="256" height="153" viewBox="0 0 256 153" xmlns="http://www.w3.org/2000/svg" xmlns:xlink="http://www.w3.org/1999/xlink">
    <linearGradient id="linearGradient1" x1="159.18" y1="109.61" x2="114.31" y2="63.81" gradientUnits="userSpaceOnUse">
        <stop offset="1e-05" stop-color="#b5002d" stop-opacity="1"/>
        <stop offset="1" stop-color="#ff203c" stop-opacity="1"/>
    </linearGradient>
    <path id="Path" fill="url(#linearGradient1)" stroke="none" d="M 195.339996 96.809998 L 194.830002 97.320007 L 194.75 97.390015 L 163.169998 128.980011 C 153.954254 138.192749 139.015747 138.192749 129.800003 128.980011 L 113.419998 112.589996 L 116.18 109.830017 L 146.479996 79.529999 L 149.639999 82.679993 L 163.759995 96.809998 C 172.485046 105.519775 186.61496 105.519775 195.339996 96.809998 Z"/>
    <linearGradient id="linearGradient2" x1="190.78" y1="86.05" x2="202.4" y2="18.85" gradientUnits="userSpaceOnUse">
        <stop offset="1e-05" stop-color="#5800aa" stop-opacity="1"/>
        <stop offset="1" stop-color="#5451ce" stop-opacity="1"/>
    </linearGradient>
    <path id="path1" fill="url(#linearGradient2)" stroke="none" d="M 244.110001 38.350006 C 244.117233 44.549042 241.651749 50.494995 237.259995 54.869995 L 195.339996 96.799988 C 186.61496 105.509796 172.485046 105.509796 163.759995 96.799988 L 149.639999 82.670013 L 146.479996 79.519989 L 204.199997 21.809998 C 210.887848 15.123901 220.944901 13.125092 229.681168 16.745667 C 238.41745 20.366272 244.112305 28.893188 244.110001 38.350006 Z"/>
    <linearGradient id="linearGradient3" x1="161.39" y1="95.11" x2="193.53" y2="72.34" gradientUnits="userSpaceOnUse">
        <stop offset="1e-05" stop-color="#5800aa" stop-opacity="1"/>
        <stop offset="1" stop-color="#5451ce" stop-opacity="1"/>
    </linearGradient>
    <path id="path2" fill="url(#linearGradient3)" stroke="none" d="M 146.479996 79.529999 L 149.639999 82.679993 L 163.759995 96.809998 C 172.485046 105.519775 186.61496 105.519775 195.339996 96.809998 L 237.259995 54.869995 C 237.259995 54.869995 199.070007 90.220001 146.479996 79.529999 Z"/>
    <linearGradient id="linearGradient4" x1="115.46" y1="125.16" x2="192.82" y2="113.4" gradientUnits="userSpaceOnUse">
        <stop offset="1e-05" stop-color="#b5002d" stop-opacity="1"/>
        <stop offset="1" stop-color="#ff203c" stop-opacity="1"/>
    </linearGradient>
    <path id="path3" fill="url(#linearGradient4)" stroke="none" d="M 194.75 97.390015 L 163.169998 128.980011 C 153.954254 138.192749 139.015747 138.192749 129.800003 128.980011 L 113.419998 112.589996 L 116.18 109.830017 C 125.527954 114.758087 135.91333 117.39386 146.479996 117.519989 C 172.669998 117.519989 191.270004 100.76001 194.75 97.390015 Z"/>
    <linearGradient id="linearGradient5" x1="27.93" y1="55.29" x2="88.58" y2="115.94" gradientUnits="userSpaceOnUse">
        <stop offset="1e-05" stop-color="#05dbb2" stop-opacity="1"/>
        <stop offset="1" stop-color="#0087bf" stop-opacity="1"/>
    </linearGradient>
    <path id="path4" fill="url(#linearGradient5)" stroke="none" d="M 118.300003 96.809998 L 86.129997 128.980011 C 76.914246 138.192749 61.97575 138.192749 52.759998 128.980011 L 36.379997 112.589996 L 19.85 96.059998 C 10.717972 86.930725 10.715734 72.127014 19.844999 62.994995 C 28.974268 53.862976 43.777973 53.860718 52.91 62.98999 L 69.449997 79.529999 L 72.599998 82.679993 L 86.730003 96.809998 C 95.451614 105.518646 109.578384 105.518646 118.300003 96.809998 Z"/>
    <linearGradient id="linearGradient6" x1="113.75" y1="86.05" x2="125.37" y2="18.85" gradientUnits="userSpaceOnUse">
        <stop offset="1e-05" stop-color="#112b60" stop-opacity="1"/>
        <stop offset="1" stop-color="#0047bf" stop-opacity="1"/>
    </linearGradient>
    <path id="path5" fill="url(#linearGradient6)" stroke="none" d="M 167.070007 38.350006 C 167.077225 44.549042 164.611755 50.494995 160.220001 54.869995 L 118.300003 96.809998 C 109.578384 105.518646 95.451614 105.518646 86.730003 96.809998 L 72.599998 82.679993 L 69.449997 79.529999 L 127.160004 21.809998 C 133.847839 15.123901 143.904907 13.125092 152.641174 16.745667 C 161.377457 20.366272 167.072296 28.893188 167.070007 38.350006 Z"/>
    <linearGradient id="linearGradient7" x1="84.35" y1="95.11" x2="116.49" y2="72.34" gradientUnits="userSpaceOnUse">
        <stop offset="1e-05" stop-color="#112b60" stop-opacity="1"/>
        <stop offset="1" stop-color="#0047bf" stop-opacity="1"/>
    </linearGradient>
    <path id="path6" fill="url(#linearGradient7)" stroke="none" d="M 69.450005 79.529999 L 72.599998 82.679993 L 86.730003 96.809998 C 95.451614 105.518646 109.578384 105.518646 118.300003 96.809998 L 160.220001 54.869995 C 160.220001 54.869995 122 90.220001 69.450005 79.529999 Z"/>
    <linearGradient id="linearGradient8" x1="40.89" y1="116.26" x2="100.3" y2="115.95" gradientUnits="userSpaceOnUse">
        <stop offset="1e-05" stop-color="#05dbb2" stop-opacity="1"/>
        <stop offset="1" stop-color="#0087bf" stop-opacity="1"/>
    </linearGradient>
    <path id="path7" fill="url(#linearGradient8)" stroke="none" d="M 69.450005 117.519989 C 43.049999 117.519989 23.75 99.880005 20.370001 96.589996 L 36.370003 112.589996 L 52.75 128.980011 C 61.965752 138.192749 76.904251 138.192749 86.120003 128.980011 L 117.779999 97.309998 C 114.529999 100.5 95.839996 117.519989 69.450005 117.519989 Z"/>
</svg>
